<svg width="345" height="691" viewBox="0 0 345 691" fill="none" xmlns="http://www.w3.org/2000/svg">
<path fill-rule="evenodd" clip-rule="evenodd" d="M45 0C20.1472 0 0 20.1472 0 45V646C0 670.853 20.1472 691 45 691H300C324.853 691 345 670.853 345 646V45C345 20.1472 324.853 0 300 0H45ZM52 20C33.7747 20 19 34.7746 19 53V638C19 656.225 33.7747 671 52 671H293C311.225 671 326 656.225 326 638V53C326 34.7746 311.225 20 293 20H52Z" fill="#333333"/>
<path d="M191 26C191 37.0457 182.27 46 171.5 46C160.73 46 152 37.0457 152 26C152 14.9543 160.73 6 171.5 6C182.27 6 191 14.9543 191 26Z" fill="#333333"/>
<path d="M193 30.5C189 35.5 188 36.8333 185.5 40L182.5 20H216C212 20 207 21.5 203.5 23C199.5 24.7143 195.65 27.1871 193 30.5Z" fill="#333333"/>
<path d="M150 30.5C154 35.5 155 36.8333 157.5 40L160.5 20H127C131 20 136 21.5 139.5 23C143.5 24.7143 147.35 27.1871 150 30.5Z" fill="#333333"/>
</svg>
